:SAMPLES-PER-SECOND 30
:FULLY-SPECIFIED
:DEGREES
99
root  68.0934 39.0308 5.83283 -130.706 84.0299 -128.817
RightUpLeg  -2.39985 3.50681 9.96432
RightLeg  15.0897 4.83228 -1.58877
RightFoot  -8.88213 0.147937 -4.01084
RightToes  -4.07455e-010 -1.59028e-015 9.93923e-017
Spine  -3.88406 0.510288 9.45575
Spine1  8.40937 1.16316 -1.64345
HEad  -7.96649 -1.60895 4.03431
LeftShoulder1  9.93923e-017 0 1.22299e-017
LeftArm  5.3847 50.5944 -76.3824
LeftForeArm  -22.883 -12.6032 -4.2932
LeftHand  0.920323 6.55341 0.245229
RightShoulder  1.98785e-016 -4.96962e-017 1.55301e-017
RightArm  24.6545 -20.5624 82.7491
RightForeArm  -43.6814 24.4382 -23.0436
RightHand  1.54502 -12.3731 -7.50831
LeftUpLeg  -22.2169 -5.29223 3.91083
LeftLeg  46.9387 -9.07385 2.59498
LeftFoot  8.83934 0.993846 -4.91918
LeftToes  -3.15592e-010 -1.11882e-010 -6.33042e-011
100
root  69.8659 39.0477 5.77101 -114.213 84.9618 -112.636
RightUpLeg  0.977754 2.75648 9.72023
RightLeg  13.4688 7.30949 -0.758895
RightFoot  -9.83575 0.128958 -4.54406
RightToes  -4.07455e-010 -1.59028e-015 9.93923e-017
Spine  -3.77306 1.99774 11.5548
Spine1  7.83235 2.95468 -4.00639
HEad  -8.28475 -2.99063 4.11001
LeftShoulder1  9.93923e-017 0 1.22299e-017
LeftArm  12.8933 56.6953 -69.887
LeftForeArm  -26.7051 -15.0579 -2.39168
LeftHand  1.00268 7.14775 -2.04961
RightShoulder  1.98785e-016 -4.96962e-017 1.55301e-017
RightArm  22.2832 -15.2033 80.6084
RightForeArm  -41.0901 26.9772 -24.8543
RightHand  1.51851 -12.2266 -7.45479
LeftUpLeg  -24.5661 -4.20673 3.5468
LeftLeg  37.7893 -8.70002 1.69526
LeftFoot  6.17067 1.02584 -5.84579
LeftToes  -3.15592e-010 -1.11882e-010 -6.33042e-011
101
root  71.6003 38.9407 5.71927 -93.0464 85.4726 -91.9469
RightUpLeg  3.9826 2.50103 9.39561
RightLeg  12.1972 8.89769 -0.49741
RightFoot  -11.166 0.0821904 -4.9179
RightToes  -4.07455e-010 -1.59028e-015 9.93923e-017
Spine  -4.02996 3.36671 12.5838
Spine1  7.99811 4.4367 -5.58552
HEad  -8.97387 -3.98511 4.14333
LeftShoulder1  9.93923e-017 0 1.22299e-017
LeftArm  18.8784 61.0107 -62.3583
LeftForeArm  -26.0666 -15.5548 -1.76603
LeftHand  1.04793 7.5806 -4.30986
RightShoulder  1.98785e-016 -4.96962e-017 1.55301e-017
RightArm  21.2931 -9.67154 78.357
RightForeArm  -40.1157 29.113 -26.4078
RightHand  1.53537 -12.2116 -7.82332
LeftUpLeg  -25.8857 -3.63174 3.5055
LeftLeg  26.1335 -7.71684 0.941858
LeftFoot  5.66216 1.04906 -6.13887
LeftToes  -3.15592e-010 -1.11882e-010 -6.33042e-011
102
root  73.2791 38.7883 5.68556 -76.1737 85.6838 -75.566
RightUpLeg  6.96139 2.42258 8.9376
RightLeg  10.6941 9.6729 -0.56983
RightFoot  -12.4978 0.0246172 -4.76058
RightToes  -4.07455e-010 -1.59028e-015 9.93923e-017
Spine  -4.43346 4.20518 12.4418
Spine1  8.70208 5.33301 -6.45635
HEad  -9.83006 -4.27477 4.263
LeftShoulder1  9.93923e-017 0 1.22299e-017
LeftArm  22.6251 63.7331 -54.5207
LeftForeArm  -22.1243 -14.2826 -2.57991
LeftHand  1.06324 7.75189 -4.90415
RightShoulder  1.98785e-016 -4.96962e-017 1.55301e-017
RightArm  21.6955 -4.02593 76.5343
RightForeArm  -40.1585 30.46 -27.3893
RightHand  1.61515 -12.4386 -8.59586
LeftUpLeg  -26.4287 -4.22772 3.66435
LeftLeg  13.2334 -6.04969 0.27146
LeftFoot  5.32702 0.93978 -5.59466
LeftToes  -3.15592e-010 -1.11882e-010 -6.33042e-011
103
root  74.9926 38.5294 5.63845 -69.8617 85.631 -69.5339
RightUpLeg  9.78976 2.26332 8.70995
RightLeg  10.0529 9.92395 -0.662381
RightFoot  -14.0047 -0.0352869 -4.40391
RightToes  -4.07455e-010 -1.59028e-015 9.93923e-017
Spine  -4.58392 4.37188 12.2264
Spine1  9.53665 5.69898 -6.98018
HEad  -10.8611 -3.98534 4.34953
LeftShoulder1  9.93923e-017 0 1.22299e-017
LeftArm  22.799 64.9206 -47.7752
LeftForeArm  -16.2054 -11.1477 -4.3682
LeftHand  1.10166 8.12291 -4.73458
RightShoulder  1.98785e-016 -4.96962e-017 1.55301e-017
RightArm  22.0072 0.814729 75.3507
RightForeArm  -40.2123 31.2273 -27.9613
RightHand  1.72707 -12.7533 -9.5963
LeftUpLeg  -26.7689 -2.6241 2.46231
LeftLeg  2.26948 -7.44928 0.409467
LeftFoot  3.20933 0.81805 -5.53803
LeftToes  -3.15592e-010 -1.11882e-010 -6.33042e-011
104
root  76.7985 38.1754 5.54382 -69.0602 85.4878 -68.9383
RightUpLeg  12.4018 2.09199 8.54051
RightLeg  10.4262 10.2076 -0.70065
RightFoot  -15.0673 -0.0704331 -4.03713
RightToes  -4.07455e-010 -1.59028e-015 9.93923e-017
Spine  -4.66341 4.29994 12.1694
Spine1  10.4201 5.88561 -7.35934
HEad  -12.0526 -3.49457 4.29327
LeftShoulder1  9.93923e-017 0 1.22299e-017
LeftArm  19.4875 64.7533 -43.5656
LeftForeArm  -9.63966 -6.56359 -5.97215
LeftHand  1.16794 8.94244 -5.59554
RightShoulder  1.98785e-016 -4.96962e-017 1.55301e-017
RightArm  20.7872 3.7118 74.7217
RightForeArm  -39.57 31.8322 -28.4653
RightHand  1.79138 -12.8872 -10.2769
LeftUpLeg  -27.8094 -2.2867 1.97437
LeftLeg  -2.40536 -7.36771 0.401516
LeftFoot  1.08608 0.709257 -5.53279
LeftToes  -3.15592e-010 -1.11882e-010 -6.33042e-011
105
root  78.7343 37.7756 5.40896 -63.8788 85.8105 -64.1926
RightUpLeg  14.5385 2.30432 7.70514
RightLeg  11.7578 10.6555 -0.723891
RightFoot  -15.5637 -0.0519816 -2.45042
RightToes  -4.07455e-010 -1.59028e-015 9.93923e-017
Spine  -5.06148 4.36759 11.2823
Spine1  11.227 6.13021 -7.54068
HEad  -13.1324 -3.04683 4.49432
LeftShoulder1  9.93923e-017 0 1.22299e-017
LeftArm  14.9199 63.797 -41.9407
LeftForeArm  -4.27557 -3.20014 -6.2912
LeftHand  1.22507 9.86961 -6.74436
RightShoulder  1.98785e-016 -4.96962e-017 1.55301e-017
RightArm  18.0998 4.07704 74.7112
RightForeArm  -38.3913 32.5877 -29.1323
RightHand  1.79 -12.8227 -10.4582
LeftUpLeg  -29.5651 -2.87262 1.36111
LeftLeg  -0.0615208 -5.73888 0.868765
LeftFoot  2.22429 0.627355 -4.49831
LeftToes  -3.15592e-010 -1.11882e-010 -6.33042e-011
106
root  80.7863 37.3605 5.25237 -45.9694 86.5776 -46.8026
RightUpLeg  15.878 3.44168 5.9341
RightLeg  14.6952 10.4545 -0.305816
RightFoot  -15.5949 0.0337504 1.19925
RightToes  -4.07455e-010 -1.59028e-015 9.93923e-017
Spine  -5.48532 4.60899 9.36522
Spine1  11.4996 6.43935 -7.69513
HEad  -13.9005 -2.899 5.45385
LeftShoulder1  9.93923e-017 0 1.22299e-017
LeftArm  10.1685 62.5255 -42.532
LeftForeArm  -1.67053 -2.11819 -5.77604
LeftHand  1.29142 10.4653 -6.21099
RightShoulder  1.98785e-016 -4.96962e-017 1.55301e-017
RightArm  15.0139 1.92554 75.4599
RightForeArm  -37.4017 33.5154 -29.9407
RightHand  1.79391 -12.7962 -10.6115
LeftUpLeg  -31.4664 -5.56655 1.40228
LeftLeg  6.59452 -1.65187 1.77794
LeftFoot  6.8587 0.502528 -2.73638
LeftToes  -3.15592e-010 -1.11882e-010 -6.33042e-011
107
root  82.8701 37.0208 5.07544 -14.217 87.1133 -15.2242
RightUpLeg  16.2203 3.30142 2.88857
RightLeg  19.6446 10.8652 0.621891
RightFoot  -12.9276 -0.0129053 4.87389
RightToes  -4.07455e-010 -1.59028e-015 9.93923e-017
Spine  -5.11474 4.82706 7.26037
Spine1  11.0878 6.76122 -8.22228
HEad  -14.427 -3.41642 6.66889
LeftShoulder1  9.93923e-017 0 1.22299e-017
LeftArm  5.32293 60.6662 -45.7357
LeftForeArm  -1.94598 -1.86737 -5.4859
LeftHand  1.33795 10.5464 -4.87133
RightShoulder  1.98785e-016 -4.96962e-017 1.55301e-017
RightArm  12.3342 -2.47786 76.8483
RightForeArm  -36.7784 34.1435 -30.5001
RightHand  1.84061 -12.9027 -11.055
LeftUpLeg  -32.9072 -8.62343 1.29681
LeftLeg  14.494 1.8283 2.9298
LeftFoot  10.0033 0.226326 -0.97087
LeftToes  -3.15592e-010 -1.11882e-010 -6.33042e-011
108
root  84.8549 36.8371 4.87806 23.3626 87.0243 22.5242
RightUpLeg  14.6724 1.43586 -0.884977
RightLeg  27.3465 11.7594 1.34466
RightFoot  -3.96422 -0.484422 6.14904
RightToes  -4.07455e-010 -1.59028e-015 9.93923e-017
Spine  -3.80845 4.85177 5.22587
Spine1  10.5018 6.97807 -9.01681
HEad  -14.7238 -4.46416 7.007
LeftShoulder1  9.93923e-017 0 1.22299e-017
LeftArm  0.93475 57.507 -51.374
LeftForeArm  -3.36649 -2.02774 -5.72105
LeftHand  1.3095 10.3148 -5.084
RightShoulder  1.98785e-016 -4.96962e-017 1.55301e-017
RightArm  10.4383 -8.55271 78.7288
RightForeArm  -36.1046 33.647 -30.144
RightHand  1.88403 -13.0232 -11.3849
LeftUpLeg  -33.1325 -9.49532 -1.02494
LeftLeg  21.1361 1.66508 4.40729
LeftFoot  8.57731 -0.0944363 0.625762
LeftToes  -3.15592e-010 -1.11882e-010 -6.33042e-011
109
root  86.6388 36.758 4.67973 50.8246 86.1345 50.0711
RightUpLeg  10.4313 0.366398 -3.96155
RightLeg  37.2956 11.2707 1.15431
RightFoot  10.0184 -1.38472 6.76934
RightToes  -4.07455e-010 -1.59028e-015 9.93923e-017
Spine  -2.50928 4.6771 2.88292
Spine1  10.5657 6.79589 -9.51238
HEad  -14.8659 -5.02874 6.43947
LeftShoulder1  9.93923e-017 0 1.22299e-017
LeftArm  -2.15702 52.9533 -58.3268
LeftForeArm  -5.8359 -2.66756 -6.30062
LeftHand  1.23787 9.86289 -6.24817
RightShoulder  1.98785e-016 -4.96962e-017 1.55301e-017
RightArm  10.2471 -14.6574 81.3105
RightForeArm  -35.845 31.1742 -28.2116
RightHand  1.85079 -12.9749 -10.9963
LeftUpLeg  -32.3976 -9.95061 -3.86122
LeftLeg  25.7713 1.05555 5.61432
LeftFoot  4.62162 -0.271871 1.81408
LeftToes  -3.15592e-010 -1.11882e-010 -6.33042e-011
110
root  88.275 36.7571 4.52337 64.2484 85.0368 63.2859
RightUpLeg  4.28029 0.452642 -5.66742
RightLeg  47.2765 9.66209 -0.652705
RightFoot  20.5055 -2.43765 8.03184
RightToes  -4.07455e-010 -1.59028e-015 9.93923e-017
Spine  -1.73575 4.13167 0.2212
Spine1  10.8876 5.96709 -9.45595
HEad  -15.0254 -4.44533 6.0179
LeftShoulder1  9.93923e-017 0 1.22299e-017
LeftArm  -5.18694 47.7627 -65.207
LeftForeArm  -8.66911 -3.04489 -6.82757
LeftHand  1.16923 9.10737 -6.4158
RightShoulder  1.98785e-016 -4.96962e-017 1.55301e-017
RightArm  14.1245 -19.5568 84.5031
RightForeArm  -38.1862 26.515 -24.7713
RightHand  1.70869 -12.5338 -9.97922
LeftUpLeg  -31.0512 -9.89624 -6.23704
LeftLeg  28.5848 0.460319 6.18058
LeftFoot  0.826759 -0.282719 2.28039
LeftToes  -3.15592e-010 -1.11882e-010 -6.33042e-011
111
root  89.9515 36.9948 4.4169 72.5718 84.585 71.4537
RightUpLeg  -2.09526 0.630591 -5.89496
RightLeg  55.2425 8.59601 -2.82623
RightFoot  22.9254 -2.41566 7.45032
RightToes  -4.07455e-010 -1.59028e-015 9.93923e-017
Spine  -0.852513 3.07806 -2.0599
Spine1  10.1587 4.46308 -8.90977
HEad  -14.8581 -3.08524 5.92697
LeftShoulder1  9.93923e-017 0 1.22299e-017
LeftArm  -8.90048 42.8296 -71.0155
LeftForeArm  -9.96865 -5.66643 -5.98532
LeftHand  1.12302 8.52114 -6.13845
RightShoulder  1.98785e-016 -4.96962e-017 1.55301e-017
RightArm  24.6279 -24.1284 87.7271
RightForeArm  -46.1283 21.3447 -21.0404
RightHand  1.52903 -11.8931 -8.72938
LeftUpLeg  -28.4175 -9.27265 -7.75658
LeftLeg  29.2993 -0.448268 5.86973
LeftFoot  -2.13096 -0.227509 2.23593
LeftToes  -3.15592e-010 -1.11882e-010 -6.33042e-011
112
root  91.7847 37.4542 4.32535 87.303 85.0466 86.4727
RightUpLeg  -7.32223 0.00270903 -4.97391
RightLeg  59.8161 8.4404 -3.836
RightFoot  19.7206 -1.82633 6.17877
RightToes  -4.07455e-010 -1.59028e-015 9.93923e-017
Spine  0.285454 1.75588 -3.88219
Spine1  8.50332 2.37612 -6.90629
HEad  -13.8974 -1.57848 5.22561
LeftShoulder1  9.93923e-017 0 1.22299e-017
LeftArm  -6.95535 38.1194 -76.0167
LeftForeArm  -15.4541 -11.2539 -3.63573
LeftHand  1.11531 8.45268 -6.32601
RightShoulder  1.98785e-016 -4.96962e-017 1.55301e-017
RightArm  21.014 -29.3238 89.2083
RightForeArm  -38.2592 19.1243 -10.6798
RightHand  1.38668 -11.6145 -6.73409
LeftUpLeg  -24.1832 -9.23 -8.24192
LeftLeg  28.2133 -1.26387 5.0715
LeftFoot  -4.64 -0.16454 1.95999
LeftToes  -3.15592e-010 -1.11882e-010 -6.33042e-011
